<svg width="218" height="37" viewBox="0 0 218 37" fill="none" xmlns="http://www.w3.org/2000/svg">
<path d="M29.9824 0L15.1996 15.8409L0 0.11474V36.7417H6.68792V14.8858L15.0859 23.933L23.2564 14.9627V31.1464H24.0472L29.9824 18.6575V0Z" fill="#F2F2F2"/>
<path fill-rule="evenodd" clip-rule="evenodd" d="M58.392 1.45312C63.2556 1.45312 67.16 3.17275 68.6508 6.75273C66.9359 8.91366 65.8741 11.9038 65.8741 15.2082C65.8741 15.874 65.919 16.5272 66.002 17.1636C65.1302 17.7677 64.1563 18.1708 63.1706 18.3856L72.6153 31.1609H64.2241L55.1178 17.2519V31.1609H48.4958V1.45312H58.392ZM55.1143 14.38H58.2C61.7373 14.38 62.6404 12.1877 62.6404 10.3357C62.6404 8.48367 61.4361 6.85819 58.1624 6.85819H55.1143V14.38Z" fill="#F2F2F2"/>
<path d="M122.845 31.4037V1.43945H143.575L140.565 6.89106H129.524V13.4101L139.146 13.4111V18.8245L129.524 18.8235V25.7236H140.536L144.14 31.4037H122.845Z" fill="#F2F2F2"/>
<path d="M145.361 31.4021L140.784 24.4103L140.855 8.34581L144.796 1.46094L162.276 1.48251V6.9302H147.53V13.4444H157.011V18.8538H147.53V25.7495H162.276V31.4252L145.361 31.4021Z" fill="#F2F2F2"/>
<path d="M184.085 6.89939V31.4503H177.395V6.89939H171.199V1.43945H190.827L192.774 6.89106L184.085 6.89939Z" fill="#F2F2F2"/>
<path d="M204.858 33.9235L191.755 1.43945H198.459L204.858 17.6624L211.258 1.43945H218L204.858 33.9235Z" fill="#F2F2F2"/>
<path fill-rule="evenodd" clip-rule="evenodd" d="M96.6592 23.8136C96.0656 24.9958 95.3275 26.0849 94.4537 27.0572C95.8659 27.8241 97.2777 28.2453 99.2241 28.5523L96.0563 32.0783C93.7283 31.8106 92.049 31.2737 90.2935 30.2003C88.0801 31.3119 85.5231 31.9258 82.6229 31.9258C73.0055 31.9258 66.8609 25.2175 66.8609 16.4389C66.8609 7.66034 73.3106 0.990234 82.6229 0.990234C89.138 0.990234 94.1818 4.20295 96.6592 9.10292V23.8136ZM87.5059 19.7734C88.1161 21.115 88.7268 22.1118 89.4903 23.0322C90.9021 21.3067 91.6656 18.9682 91.6656 16.4386C91.6656 11.187 88.2308 6.85488 82.6208 6.85488C77.0107 6.85488 73.5374 11.187 73.5374 16.4386C73.5374 21.7289 76.8198 26.137 82.6208 26.137C83.6127 26.137 84.5666 25.9835 85.4062 25.7536C84.6818 24.7572 84.1473 23.7599 83.7655 22.8405L87.5059 19.7734Z" fill="#F2F2F2"/>
<path d="M115.551 1.43945V19.0799C115.551 23.7034 114.236 25.8412 110.174 25.8412C106.073 25.8412 104.448 23.7431 104.448 19.0799V1.43945H97.6404V19.6237C97.6404 26.4238 101.277 31.9023 110.135 31.9023C116.843 31.9023 120.383 28.5896 121.72 24.1962V1.43945H115.551Z" fill="#F2F2F2"/>
<path fill-rule="evenodd" clip-rule="evenodd" d="M24.9679 31.1607L39.2854 0.455078L47.6809 18.3206V31.1607H46.7607L43.7482 24.4744H34.9343L31.9223 31.1607H24.9679ZM39.1361 14.3129L36.7187 19.7297H41.8137L39.1361 14.3129Z" fill="#F2F2F2"/>
</svg>
