<svg width="17" height="17" viewBox="0 0 17 17" fill="none" xmlns="http://www.w3.org/2000/svg">
<path fill-rule="evenodd" clip-rule="evenodd" d="M10.3678 12.5256C9.3113 13.2256 8.04421 13.6333 6.68189 13.6333C2.99159 13.6333 0 10.6417 0 6.95142C0 3.26112 2.99159 0.269531 6.68189 0.269531C10.3722 0.269531 13.3638 3.26112 13.3638 6.95142C13.3638 8.31287 12.9566 9.57922 12.2574 10.6353L16.0017 14.3797L14.1118 16.2696L10.3678 12.5256ZM10.6901 6.95152C10.6901 9.1657 8.8952 10.9607 6.68101 10.9607C4.46683 10.9607 2.67188 9.1657 2.67188 6.95152C2.67188 4.73733 4.46683 2.94238 6.68101 2.94238C8.8952 2.94238 10.6901 4.73733 10.6901 6.95152Z" fill="#F2F2F2"/>
</svg>
