<svg width="20" height="21" viewBox="0 0 20 21" fill="none" xmlns="http://www.w3.org/2000/svg">
<path fill-rule="evenodd" clip-rule="evenodd" d="M10.957 12.579C9.68394 13.1065 8.22022 12.5015 7.69148 11.2253C7.16337 9.9503 7.76898 8.48845 9.04332 7.95971C10.3177 7.43284 11.7808 8.03783 12.3095 9.31218C12.8382 10.5878 12.2301 12.0521 10.957 12.579ZM19.805 12.5953L17.5663 11.6678C17.7356 10.7565 17.7444 9.8103 17.57 8.86969L19.805 7.94408C19.9656 7.87721 20.0425 7.69159 19.9762 7.53159L18.9906 5.151C18.9244 4.99163 18.7387 4.91413 18.5787 4.98101L16.3425 5.90724C15.8007 5.1185 15.1244 4.45477 14.3613 3.9304L15.2888 1.69169C15.3551 1.53107 15.2782 1.34544 15.1176 1.27919L12.7382 0.293587C12.5782 0.226713 12.3932 0.304211 12.3264 0.464834L11.3989 2.70355C10.4883 2.5348 9.54081 2.52542 8.60083 2.6998L7.67398 0.464834C7.60773 0.304211 7.42211 0.226713 7.26211 0.293587L4.88217 1.27919C4.72154 1.34669 4.64467 1.53232 4.71154 1.69169L5.63715 3.92852C4.84967 4.46914 4.18656 5.14475 3.66219 5.90787L1.42287 4.98038C1.26287 4.91413 1.07663 4.99163 1.011 5.151L0.0253992 7.53159C-0.0414744 7.69159 0.0353989 7.87721 0.19602 7.94408L2.43472 8.87156C2.26597 9.78092 2.25597 10.7278 2.43097 11.6684L0.19477 12.5953C0.034149 12.6615 -0.0427243 12.8471 0.0241492 13.0077L1.011 15.3877C1.07725 15.5477 1.26287 15.6252 1.42287 15.559L3.65907 14.6321C4.20093 15.4208 4.87592 16.0839 5.63902 16.6071L4.71217 18.847C4.6453 19.007 4.72217 19.1926 4.88279 19.2595L7.26274 20.2451C7.42336 20.3126 7.60836 20.2351 7.6746 20.0745L8.60208 17.8352C9.51269 18.0039 10.4589 18.0139 11.4008 17.8389L12.327 20.0745C12.3939 20.2351 12.5795 20.3114 12.7395 20.2451L15.1188 19.2589C15.2794 19.1926 15.3563 19.007 15.2901 18.847L14.3632 16.6108C15.1519 16.0689 15.8144 15.394 16.3388 14.6308L18.5781 15.5583C18.7381 15.6252 18.9244 15.5477 18.9906 15.3877L19.9762 13.0077C20.0425 12.8471 19.9656 12.6609 19.805 12.5953Z" fill="#F2F2F2"/>
</svg>
