<svg width="32" height="32" viewBox="0 0 32 32" fill="none" xmlns="http://www.w3.org/2000/svg">
<path d="M2.66699 16.2719C2.66699 13.2207 2.66699 11.6951 3.35926 10.4304C4.05153 9.16569 5.31626 8.38076 7.8457 6.81092L10.5124 5.15591C13.1862 3.49647 14.5231 2.66675 16.0003 2.66675C17.4775 2.66675 18.8145 3.49647 21.4883 5.15591L24.155 6.81091C26.6845 8.38076 27.9491 9.16569 28.6414 10.4304C29.3337 11.6951 29.3337 13.2207 29.3337 16.2719V18.3001C29.3337 23.5011 29.3337 26.1018 27.7715 27.7175C26.2095 29.3334 23.6953 29.3334 18.667 29.3334H13.3337C8.30534 29.3334 5.79119 29.3334 4.22909 27.7175C2.66699 26.1018 2.66699 23.5011 2.66699 18.3001V16.2719Z" stroke="white" stroke-width="2.5"/>
<path d="M20 24H12" stroke="white" stroke-width="2.5" stroke-linecap="round"/>
</svg>
