<svg width="32" height="32" viewBox="0 0 32 32" fill="none" xmlns="http://www.w3.org/2000/svg">
<path d="M7.98645 6.5717C8.37697 6.96223 8.37697 7.59539 7.98645 7.98592C3.56051 12.4119 3.56051 19.5877 7.98645 24.0137C8.37697 24.4042 8.37697 25.0374 7.98645 25.4279C7.59592 25.8184 6.96276 25.8184 6.57224 25.4279C1.36524 20.2209 1.36524 11.7787 6.57224 6.5717C6.96276 6.18118 7.59592 6.18118 7.98645 6.5717ZM25.4284 6.5717C30.6354 11.7787 30.6354 20.2209 25.4284 25.4279C25.0379 25.8184 24.4047 25.8184 24.0142 25.4279C23.6237 25.0374 23.6237 24.4042 24.0142 24.0137C28.4401 19.5877 28.4401 12.4119 24.0142 7.98592C23.6237 7.59539 23.6237 6.96223 24.0142 6.5717C24.4047 6.18118 25.0379 6.18118 25.4284 6.5717ZM11.7577 10.3429C12.1482 10.7335 12.1482 11.3666 11.7577 11.7572C9.41454 14.1003 9.41454 17.8993 11.7577 20.2424C12.1482 20.633 12.1482 21.2661 11.7577 21.6566C11.3672 22.0472 10.734 22.0472 10.3435 21.6566C7.21928 18.5325 7.21928 13.4671 10.3435 10.3429C10.734 9.95241 11.3672 9.95241 11.7577 10.3429ZM21.6572 10.3429C24.7814 13.4671 24.7814 18.5325 21.6572 21.6566C21.2667 22.0472 20.6335 22.0472 20.243 21.6566C19.8524 21.2661 19.8524 20.633 20.243 20.2424C22.5861 17.8993 22.5861 14.1003 20.243 11.7572C19.8524 11.3666 19.8524 10.7335 20.243 10.3429C20.6335 9.95241 21.2667 9.95241 21.6572 10.3429ZM16.0003 13.9998C17.1049 13.9998 18.0003 14.8952 18.0003 15.9998C18.0003 17.1044 17.1049 17.9998 16.0003 17.9998C14.8958 17.9998 14.0003 17.1044 14.0003 15.9998C14.0003 14.8952 14.8958 13.9998 16.0003 13.9998Z" fill="#BBBBBB"/>
</svg>
