<svg width="32" height="32" viewBox="0 0 32 32" fill="none" xmlns="http://www.w3.org/2000/svg">
<path d="M27.3334 6.14535C26.6035 5.26214 25.6867 4.55183 24.6492 4.06558C23.6117 3.57933 22.4792 3.32925 21.3334 3.33335C19.3729 3.27399 17.4643 3.96827 16.0001 5.27335C14.5359 3.96827 12.6272 3.27399 10.6668 3.33335C9.52095 3.32925 8.3885 3.57933 7.35098 4.06558C6.31347 4.55183 5.39671 5.26214 4.66676 6.14535C3.39609 7.68668 2.06676 10.4774 2.94809 15.0254C4.35476 22.288 14.9028 28.248 15.3481 28.492C15.5466 28.6027 15.7701 28.6608 15.9974 28.6608C16.2247 28.6608 16.4482 28.6027 16.6468 28.492C17.0948 28.2427 27.6428 22.2827 29.0468 15.0254C29.9334 10.4774 28.6041 7.68668 27.3334 6.14535ZM26.4348 14.5187C25.4401 19.6534 18.2108 24.4293 16.0001 25.7867C12.8854 23.9067 6.47742 19.1867 5.57209 14.5187C4.88809 10.9907 5.82409 8.94135 6.73076 7.84268C7.21023 7.26416 7.8118 6.79893 8.4923 6.48035C9.1728 6.16176 9.91538 5.99773 10.6668 6.00002C11.4693 5.93983 12.2737 6.08862 13.0016 6.43189C13.7295 6.77516 14.356 7.30118 14.8201 7.95868C14.9345 8.16926 15.1033 8.3453 15.309 8.46844C15.5146 8.59158 15.7494 8.65733 15.9891 8.65883C16.2288 8.66033 16.4644 8.59752 16.6716 8.47696C16.8787 8.35639 17.0497 8.18248 17.1668 7.97335C17.6299 7.31073 18.2578 6.78025 18.9884 6.43422C19.7191 6.08818 20.5273 5.93853 21.3334 6.00002C22.0864 5.99635 22.8308 6.15972 23.513 6.47835C24.1952 6.79698 24.7983 7.26295 25.2788 7.84268C26.1828 8.94135 27.1188 10.9907 26.4348 14.5187Z" fill="#BBBBBB"/>
</svg>
