<svg width="32" height="32" viewBox="0 0 32 32" fill="none" xmlns="http://www.w3.org/2000/svg">
<path d="M24.97 3.52007C24.7864 3.51236 24.5961 3.54026 24.41 3.59007L4.91001 8.81007C3.91744 9.07572 3.32379 10.1077 3.59001 11.1001L4.02001 12.6901C4.13725 13.1271 4.40448 13.4765 4.75001 13.7201C4.58109 14.0008 4.48001 14.3208 4.48001 14.6701V26.6001C4.48001 27.6274 5.32273 28.4801 6.35001 28.4801H26.61C27.6373 28.4801 28.48 27.6274 28.48 26.6001V14.6701C28.48 13.6428 27.6373 12.8001 26.61 12.8001H10.83L25.81 8.79007C26.8026 8.52441 27.3962 7.49248 27.13 6.50007L26.7 4.91007C26.4837 4.10373 25.7655 3.55344 24.97 3.52007ZM24.87 4.80007C25.1501 4.77936 25.3928 4.95228 25.47 5.24007L25.9 6.83007C25.9882 7.15896 25.809 7.47203 25.48 7.56007L24.47 7.83007L22.7 5.37007L24.75 4.82007C24.7911 4.80906 24.83 4.80303 24.87 4.80007ZM21.39 5.72007L23.15 8.18007L19.42 9.18007L17.66 6.72007L21.39 5.72007ZM16.35 7.07007L18.1 9.53007L14.38 10.5301L12.62 8.06007L16.35 7.07007ZM11.31 8.42007L13.06 10.8801L9.34001 11.8801L7.58001 9.41007L11.31 8.42007ZM6.26001 9.77007L8.02001 12.2301L5.98001 12.7801C5.65106 12.8681 5.33824 12.689 5.25001 12.3601L4.82001 10.7601C4.73178 10.4312 4.91106 10.1281 5.24001 10.0401L6.26001 9.77007ZM6.35001 14.0801H8.49001L7.45001 16.9601H5.76001V14.6701C5.76001 14.3298 6.00971 14.0801 6.35001 14.0801ZM9.84001 14.0801H13.72L12.68 16.9601H8.80001L9.84001 14.0801ZM15.08 14.0801H18.95L17.91 16.9601H14.04L15.08 14.0801ZM20.31 14.0801H24.19L23.15 16.9601H19.27L20.31 14.0801ZM25.54 14.0801H26.61C26.9503 14.0801 27.2 14.3298 27.2 14.6701V16.9601H24.5L25.54 14.0801ZM5.76001 18.2401H27.2V26.6001C27.2 26.9404 26.9503 27.2001 26.61 27.2001H6.35001C6.00971 27.2001 5.76001 26.9404 5.76001 26.6001V18.2401Z" fill="#BBBBBB" stroke="#BBBBBB"/>
</svg>
