<svg width="32" height="32" viewBox="0 0 32 32" fill="none" xmlns="http://www.w3.org/2000/svg">
<path d="M15.9999 21.3333C17.0548 21.3333 18.0859 21.0205 18.963 20.4344C19.84 19.8484 20.5236 19.0154 20.9273 18.0409C21.331 17.0664 21.4366 15.994 21.2308 14.9594C21.025 13.9249 20.5171 12.9746 19.7712 12.2287C19.0253 11.4828 18.075 10.9749 17.0404 10.7691C16.0059 10.5633 14.9335 10.6689 13.959 11.0726C12.9844 11.4762 12.1515 12.1598 11.5654 13.0369C10.9794 13.9139 10.6666 14.9451 10.6666 15.9999C10.6666 17.4144 11.2285 18.771 12.2287 19.7712C13.2289 20.7713 14.5855 21.3333 15.9999 21.3333ZM15.9999 13.3333C16.5274 13.3333 17.0429 13.4896 17.4815 13.7827C17.92 14.0757 18.2618 14.4922 18.4636 14.9794C18.6655 15.4667 18.7183 16.0029 18.6154 16.5202C18.5125 17.0374 18.2585 17.5126 17.8856 17.8855C17.5126 18.2585 17.0375 18.5125 16.5202 18.6153C16.0029 18.7182 15.4667 18.6654 14.9795 18.4636C14.4922 18.2618 14.0757 17.92 13.7827 17.4814C13.4897 17.0429 13.3333 16.5273 13.3333 15.9999C13.3333 15.2927 13.6142 14.6144 14.1143 14.1143C14.6144 13.6142 15.2927 13.3333 15.9999 13.3333ZM4.66661 17.1693L3.33328 17.9413C3.02991 18.1162 2.76397 18.3493 2.55067 18.6271C2.33737 18.9048 2.18087 19.2219 2.09012 19.5602C1.99936 19.8984 1.97612 20.2512 2.02174 20.5985C2.06735 20.9457 2.18091 21.2806 2.35594 21.5839L4.34128 25.0213C4.51616 25.3251 4.74923 25.5915 5.02716 25.8051C5.3051 26.0188 5.62243 26.1756 5.96101 26.2665C6.29959 26.3574 6.65277 26.3806 7.00035 26.3349C7.34792 26.2891 7.68307 26.1753 7.98661 25.9999L9.33328 25.2213C9.53879 25.1052 9.77127 25.0455 10.0072 25.0481C10.2432 25.0507 10.4743 25.1155 10.6773 25.2359C10.8777 25.3519 11.0441 25.5185 11.16 25.7191C11.2758 25.9196 11.3369 26.147 11.3373 26.3786V27.9999C11.3373 28.7072 11.6182 29.3854 12.1183 29.8855C12.6184 30.3856 13.2967 30.6666 14.0039 30.6666H18.0039C18.7112 30.6666 19.3895 30.3856 19.8896 29.8855C20.3897 29.3854 20.6706 28.7072 20.6706 27.9999V26.3759C20.6742 26.1433 20.738 25.9155 20.8559 25.7149C20.9737 25.5143 21.1416 25.3477 21.3431 25.2314C21.5446 25.115 21.7729 25.0529 22.0055 25.0512C22.2382 25.0494 22.4674 25.108 22.6706 25.2213L24.0159 25.9972C24.6284 26.3509 25.3563 26.4467 26.0394 26.2636C26.7225 26.0806 27.305 25.6337 27.6586 25.0213L29.6426 21.5839C29.8176 21.2806 29.9312 20.9457 29.9768 20.5985C30.0224 20.2512 29.9992 19.8984 29.9084 19.5602C29.8177 19.2219 29.6612 18.9048 29.4479 18.6271C29.2346 18.3493 28.9686 18.1162 28.6653 17.9413L27.3319 17.1693C27.1252 17.0488 26.9543 16.8753 26.8371 16.6667C26.7199 16.458 26.6606 16.2218 26.6653 15.9826C26.6658 15.749 26.7276 15.5196 26.8446 15.3174C26.9616 15.1153 27.1296 14.9474 27.3319 14.8306L28.6653 14.0586C28.9686 13.8836 29.2346 13.6506 29.4479 13.3728C29.6612 13.095 29.8177 12.7779 29.9084 12.4397C29.9992 12.1014 30.0224 11.7486 29.9768 11.4014C29.9312 11.0541 29.8176 10.7193 29.6426 10.4159L27.6559 6.97859C27.4811 6.6751 27.2481 6.40904 26.9704 6.19561C26.6927 5.98217 26.3756 5.82554 26.0373 5.73466C25.6991 5.64378 25.3462 5.62043 24.9989 5.66594C24.6516 5.71145 24.3167 5.82494 24.0133 5.99992L22.6666 6.77725C22.4633 6.89096 22.234 6.94989 22.001 6.94825C21.7681 6.94661 21.5396 6.88446 21.3379 6.76789C21.1363 6.65133 20.9684 6.48435 20.8507 6.28333C20.733 6.08232 20.6695 5.85417 20.6666 5.62125V3.99992C20.6666 3.29267 20.3857 2.6144 19.8856 2.1143C19.3855 1.6142 18.7072 1.33325 17.9999 1.33325H13.9999C13.2927 1.33325 12.6144 1.6142 12.1143 2.1143C11.6142 2.6144 11.3333 3.29267 11.3333 3.99992V5.72525C11.3332 5.92535 11.2805 6.12191 11.1803 6.29513C11.0801 6.46835 10.936 6.6121 10.7626 6.71192L10.5573 6.83059C10.3837 6.92924 10.1876 6.9811 9.98794 6.9811C9.78833 6.9811 9.59214 6.92924 9.41861 6.83059L7.98661 5.99992C7.68328 5.82462 7.34839 5.71081 7.00107 5.66499C6.65374 5.61917 6.30079 5.64224 5.96238 5.73288C5.62398 5.82352 5.30674 5.97995 5.02882 6.19324C4.75089 6.40652 4.51771 6.67248 4.34261 6.97592L2.35861 10.4173C2.00532 11.0294 1.90952 11.7569 2.09228 12.4396C2.27504 13.1224 2.7214 13.7047 3.33328 14.0586L4.66661 14.8293C4.87322 14.9502 5.04389 15.124 5.16106 15.3328C5.27822 15.5416 5.33767 15.7779 5.33328 16.0173C5.33362 16.251 5.27213 16.4807 5.15504 16.683C5.03796 16.8853 4.86945 17.0531 4.66661 17.1693ZM5.99994 12.5199L4.66661 11.7493L6.65328 8.31192L8.08528 9.13859C8.66339 9.47081 9.31851 9.64563 9.98528 9.64563C10.652 9.64563 11.3072 9.47081 11.8853 9.13859L12.0906 9.02125C12.6696 8.68714 13.1507 8.20684 13.4858 7.62842C13.8208 7.04999 13.9981 6.39372 13.9999 5.72525V3.99992H17.9999V5.62125C18.0027 6.32236 18.1892 7.0105 18.5409 7.61704C18.8925 8.22359 19.3971 8.72735 20.0041 9.0781C20.6112 9.42886 21.2996 9.61434 22.0007 9.61606C22.7018 9.61778 23.3912 9.43568 23.9999 9.08792L25.3426 8.31192L27.3333 11.7493L25.9999 12.5199C25.3928 12.8754 24.8893 13.3836 24.5394 13.994C24.1895 14.6044 24.0054 15.2957 24.0054 15.9993C24.0054 16.7028 24.1895 17.3941 24.5394 18.0045C24.8893 18.6149 25.3928 19.1231 25.9999 19.4786L27.3333 20.2506L25.3493 23.6879L23.9999 22.9119C23.3912 22.5642 22.7018 22.3821 22.0007 22.3838C21.2996 22.3855 20.6112 22.571 20.0041 22.9217C19.3971 23.2725 18.8925 23.7762 18.5409 24.3828C18.1892 24.9893 18.0027 25.6775 17.9999 26.3786V27.9999H13.9999V26.3786C13.998 25.6772 13.812 24.9885 13.4605 24.3815C13.109 23.7745 12.6044 23.2704 11.9971 22.9195C11.3897 22.5685 10.7009 22.3832 9.99951 22.3818C9.29809 22.3805 8.6086 22.5633 7.99994 22.9119L6.65728 23.6879L4.66661 20.2506L5.99994 19.4786C6.60706 19.1231 7.11058 18.6149 7.46048 18.0045C7.81038 17.3941 7.99448 16.7028 7.99448 15.9993C7.99448 15.2957 7.81038 14.6044 7.46048 13.994C7.11058 13.3836 6.60706 12.8754 5.99994 12.5199Z" fill="#BBBBBB"/>
</svg>
