<svg width="40" height="41" viewBox="0 0 40 41" fill="none" xmlns="http://www.w3.org/2000/svg">
<path d="M16.25 25.908C16.25 23.837 17.929 22.158 20 22.158C22.071 22.158 23.75 23.837 23.75 25.908C23.75 27.979 22.071 29.658 20 29.658C17.929 29.658 16.25 27.979 16.25 25.908Z" fill="white"/>
<path fill-rule="evenodd" clip-rule="evenodd" d="M9.45703 6.37083C8.3335 8.05231 8.3335 10.3931 8.3335 15.0746V25.0746C8.3335 29.7561 8.3335 32.097 9.45703 33.7785C9.94343 34.5063 10.5684 35.1313 11.2964 35.6178C12.9778 36.7413 15.3186 36.7413 20.0002 36.7413C24.6817 36.7413 27.0225 36.7413 28.704 35.6178C29.4318 35.1313 30.0568 34.5063 30.5433 33.7785C31.6668 32.097 31.6668 29.7561 31.6668 25.0746V15.0746C31.6668 10.3931 31.6668 8.05231 30.5433 6.37083C30.0568 5.64289 29.4318 5.01789 28.704 4.53149C27.0225 3.40796 24.6817 3.40796 20.0002 3.40796C15.3186 3.40796 12.9778 3.40796 11.2964 4.53149C10.5684 5.01789 9.94343 5.64289 9.45703 6.37083ZM20.0002 19.658C16.5484 19.658 13.7502 22.4561 13.7502 25.908C13.7502 29.3598 16.5484 32.158 20.0002 32.158C23.452 32.158 26.2502 29.3598 26.2502 25.908C26.2502 22.4561 23.452 19.658 20.0002 19.658ZM18.3335 15.908C18.3335 16.8285 17.5873 17.5746 16.6668 17.5746C15.7464 17.5746 15.0002 16.8285 15.0002 15.908C15.0002 14.9875 15.7464 14.2413 16.6668 14.2413C17.5873 14.2413 18.3335 14.9875 18.3335 15.908ZM16.6668 11.7413C17.5873 11.7413 18.3335 10.9951 18.3335 10.0746C18.3335 9.15416 17.5873 8.40796 16.6668 8.40796C15.7464 8.40796 15.0002 9.15416 15.0002 10.0746C15.0002 10.9951 15.7464 11.7413 16.6668 11.7413ZM25.0002 15.908C25.0002 16.8285 24.254 17.5746 23.3335 17.5746C22.413 17.5746 21.6668 16.8285 21.6668 15.908C21.6668 14.9875 22.413 14.2413 23.3335 14.2413C24.254 14.2413 25.0002 14.9875 25.0002 15.908ZM23.3335 11.7413C24.254 11.7413 25.0002 10.9951 25.0002 10.0746C25.0002 9.15416 24.254 8.40796 23.3335 8.40796C22.413 8.40796 21.6668 9.15416 21.6668 10.0746C21.6668 10.9951 22.413 11.7413 23.3335 11.7413Z" fill="white"/>
</svg>
